<?xml version="1.0" encoding="utf-8"?>
<!-- Generator: Adobe Illustrator 24.0.0, SVG Export Plug-In . SVG Version: 6.00 Build 0)  -->
<svg version="1.1" id="Capa_1" xmlns="http://www.w3.org/2000/svg" xmlns:xlink="http://www.w3.org/1999/xlink" x="0px" y="0px"
	 viewBox="0 0 200 150" style="enable-background:new 0 0 200 150;" xml:space="preserve">
<style type="text/css">
	.st0{fill:#FBFD8A;}
	.st1{fill:#FFFFFF;}
	.st2{font-family:'Bauhaus93';}
	.st3{font-size:51px;}
</style>
<g>
	<path class="st0" d="M171.69,55.39c0.61-0.08,1.23-0.16,1.84-0.24c6.74-0.86,10.09-4.95,9.02-11.6c-0.66-4.12-1.95-8.15-2.99-12.21
		c-0.46-1.77-1.01-3.51-1.6-5.53c-9.77,0.74-19.71,0.65-29.64-0.94c-2.43,4.83-5.75,9.14-6.8,14.59c-0.57,3-0.4,5.85,1.05,8.44
		c1.41,2.51,3.16,4.84,4.9,7.13c0.34,0.44,1.36,0.58,2.03,0.52c10.05-0.92,17.92,3.36,24.08,10.76c5.57,6.68,5.38,14.42,1.83,21.91
		c-5.45,11.52-14.11,19.54-26.72,22.84c-1.76,0.46-3.54,1.02-5.16,1.85c-3.25,1.66-4.29,4.52-2.58,7.73
		c1.32,2.48,3.11,4.73,4.84,6.97c0.33,0.42,1.37,0.48,2.05,0.41c4.36-0.49,8.07,0.75,11.05,4c0.44,0.48,0.76,1.08,0.95,1.92
		c-3.4-3.92-7.43-5.91-12.71-4.85c0,0.57,0.16,1.16-0.03,1.57c-0.47,1.01-0.91,2.19-1.72,2.85c-1.16,0.94-3.08,0.54-3.64-0.52
		c-0.79-1.5,0.17-2.47,1.25-3.28c0.6-0.46,1.33-0.75,2.2-1.23c-0.54-0.69-1.07-1.3-1.51-1.96c-1.23-1.87-2.62-3.67-3.6-5.67
		c-1.76-3.61-0.68-6.81,2.91-8.66c1.71-0.88,3.62-1.44,5.49-1.96c13.62-3.83,22.76-12.58,27.36-25.78
		c2.86-8.21,0.46-15.44-6.21-21.04c-5.39-4.53-11.45-7.56-18.78-7.1c-0.41,0.03-0.83,0.05-1.24,0.11c-0.15,0.03-0.29,0.17-0.59,0.36
		c1.24,1.48,2.49,2.87,3.62,4.35c1.46,1.93,2.97,3.85,4.21,5.92c4.11,6.84,3.8,13.81-0.04,20.59
		c-5.82,10.27-14.12,18.18-24.16,24.27c-10.58,6.42-22.1,9.85-34.49,10.26c-0.86,0.03-1.72,0-2.91,0c0.45-1.23,0.73-2.11,1.09-2.96
		c6.59-15.52,14.37-30.38,24.84-43.69c5.56-7.07,11.79-13.44,20.04-17.44c1.74-0.85,3.6-1.45,5.58-2.23
		c-0.67-0.85-1.28-1.67-1.95-2.46c-5.18-6.17-5.8-12.86-2.26-20c1-2.01,2.19-3.92,3.27-5.89c0.45-0.82,0.86-1.66,1.38-2.68
		c-0.66-0.26-1.13-0.45-1.6-0.62c-0.89-0.32-1.84-0.53-2.66-0.97c-0.99-0.53-2.38-0.94-1.95-2.52c0.28-1.01,1.97-1.29,3.45-0.36
		c1.26,0.79,2.24,2.02,3.46,2.9c0.7,0.51,1.61,0.97,2.45,1.02c6.73,0.41,13.46,0.74,20.19,1.04c1.35,0.06,2.72-0.13,4.08-0.19
		c1.88-0.09,3.54-0.2,4.74-2.25c0.64-1.09,2.55-1.55,3.97-1.99c0.49-0.15,1.59,0.44,1.82,0.96c0.19,0.44-0.28,1.57-0.77,1.84
		c-1.22,0.68-2.58,1.19-3.94,1.49c-1.3,0.28-1.68,0.77-1.28,2.05c1.08,3.44,2.27,6.86,3.07,10.37c0.68,2.98,1.23,6.06,1.23,9.1
		C183.55,52.37,176.93,57.31,171.69,55.39z M96.38,121.28c1.26,0,2.03,0.04,2.79-0.01c15.96-0.89,30.11-6.42,42.29-16.76
		c6.21-5.28,11.7-11.25,15.32-18.67c2.45-5.01,3-10.19,0.79-15.46c-2.12-5.06-5.8-9.03-9.38-13.05c-0.29-0.32-1.12-0.44-1.57-0.28
		c-1.96,0.66-3.95,1.29-5.78,2.23c-7.65,3.92-13.46,9.96-18.75,16.56c-8.42,10.5-14.89,22.19-20.69,34.27
		C99.69,113.65,98.16,117.29,96.38,121.28z M143.44,133.14c1.67-0.03,3-1.22,2.86-2.34c-0.05-0.45-0.64-0.85-0.99-1.27
		c-0.97,0.83-1.94,1.65-2.91,2.48C142.82,132.47,143.23,132.92,143.44,133.14z M184.7,22.28c-2.01-0.95-4.16-0.01-5.33,2.27
		C181.34,24.05,183.24,23.92,184.7,22.28z M141.69,21.01c1.5,1.74,3.26,2.06,5.16,2.56C145.93,21.66,143.96,20.62,141.69,21.01z"/>
	<text transform="matrix(1 0 0 1 10.8518 65.7861)" class="st1 st2 st3">Buho</text>
</g>
</svg>
